<?xml version="1.0" ?><svg data-name="Layer 1" id="Layer_1" viewBox="0 0 512 512" xmlns="http://www.w3.org/2000/svg"><defs><style>.cls-1{fill:#e4e6e6;}.cls-2{fill:#4d4d4d;}.cls-3{fill:#4ac6c6;}.cls-4{fill:#fff;}</style></defs><title/><g id="Coding"><path class="cls-1" d="M506,256A250,250,0,0,1,256,506C137.64,506,38.5,423.76,12.61,313.29A250.13,250.13,0,0,1,6,256a247,247,0,0,1,3.49-41.67C29.31,96.08,132.12,6,256,6,394.07,6,506,117.93,506,256Z"/><rect class="cls-2" height="5.21" width="447.92" x="32.04" y="490.38"/><rect class="cls-3" height="10.42" width="447.92" x="32.04" y="495.58"/><path class="cls-4" d="M420.06,261.49V471.78H91.94V261.49c0-5.39,4-8.46,9.38-8.46H411C416.36,253,420.06,256.1,420.06,261.49Z"/><path class="cls-2" d="M422.67,474.38H89.33V261.49c0-6.62,4.81-11.07,12-11.07H411c7,0,11.67,4.45,11.67,11.07V474.38ZM94.54,469.17H417.46V261.49c0-5.1-4-5.86-6.46-5.86H101.31c-1.59,0-6.77.42-6.77,5.86V469.17Z"/><rect class="cls-4" height="164.06" width="286.46" x="112.77" y="271.25"/><path class="cls-2" d="M401.83,437.92H110.17V268.65H401.83V437.92Zm-286.46-5.21H396.63V273.86H115.38V432.71Z"/><rect class="cls-3" height="5.21" width="281.25" x="115.38" y="273.86"/><path class="cls-3" d="M417.46,448.34V477H94.54V448.34H231.65a5.2,5.2,0,0,1,4.82,3.28l2.6,6.46a5.2,5.2,0,0,0,4.82,3.28h24.22a5.2,5.2,0,0,0,4.82-3.28l2.6-6.46a5.2,5.2,0,0,1,4.82-3.28H417.46Z"/><path class="cls-4" d="M445.67,456.15H285.57a5.21,5.21,0,0,0-4.84,3.27l-2.59,6.47a5.21,5.21,0,0,1-4.84,3.27H238.69a5.21,5.21,0,0,1-4.84-3.27l-2.59-6.47a5.21,5.21,0,0,0-4.84-3.27H66.65c-3.52,0-6.33,2.15-5.72,5.65,3.13,18.09,18.77,30.81,37.58,30.81H413.8c18.82,0,34.45-12.72,37.58-30.81C452,458.3,449.19,456.15,445.67,456.15Z"/><path class="cls-2" d="M413.8,495.21H98.51c-20.28,0-36.79-13.56-40.15-33a7,7,0,0,1,1.48-5.84,8.78,8.78,0,0,1,6.81-2.86H226.43a7.78,7.78,0,0,1,7.26,4.91l2.59,6.48a2.59,2.59,0,0,0,2.42,1.64h34.61a2.59,2.59,0,0,0,2.42-1.64l2.59-6.47a7.78,7.78,0,0,1,7.26-4.91h160.1a8.79,8.79,0,0,1,6.81,2.86,7,7,0,0,1,1.48,5.84C450.59,481.66,434.08,495.21,413.8,495.21ZM66.65,458.75a3.73,3.73,0,0,0-2.82,1,1.85,1.85,0,0,0-.33,1.59c2.92,16.87,17.32,28.65,35,28.65H413.8c17.7,0,32.1-11.78,35-28.65a1.85,1.85,0,0,0-.33-1.59,3.72,3.72,0,0,0-2.82-1H285.57a2.59,2.59,0,0,0-2.42,1.64l-2.59,6.47a7.78,7.78,0,0,1-7.26,4.91H238.69a7.78,7.78,0,0,1-7.26-4.91l-2.59-6.48a2.59,2.59,0,0,0-2.42-1.64H66.65Z"/><rect class="cls-3" height="5.21" width="281.25" x="115.38" y="427.5"/><rect class="cls-3" height="10.42" width="203.13" x="154.44" y="422.3"/><polygon class="cls-3" points="128.4 255.63 141.97 432.71 370.03 432.71 383.6 255.63 128.4 255.63"/><path class="cls-4" d="M151.93,159.28H360.07a4,4,0,0,1,4,4v272a0,0,0,0,1,0,0H147.93a0,0,0,0,1,0,0v-272A4,4,0,0,1,151.93,159.28Z"/><path class="cls-2" d="M366.68,437.92H145.32V169.69a13,13,0,0,1,13-13H353.66a13,13,0,0,1,13,13V437.92Zm-216.15-5.21H361.47v-263a7.82,7.82,0,0,0-7.81-7.81H158.34a7.82,7.82,0,0,0-7.81,7.81v263Z"/><rect class="cls-2" height="221.35" width="5.21" x="192.63" y="194.87"/><path class="cls-3" d="M335.43,214H317.2v-5.21h18.23V214ZM299,214H220.84v-5.21H299V214Z"/><path class="cls-3" d="M335.43,242.61H325V237.4h10.42v5.21Zm-20.83,0H272.93V237.4h41.67v5.21Zm-52.08,0H220.84V237.4h41.67v5.21Z"/><path class="cls-3" d="M335.43,271.25H304.18V266h31.25v5.21Zm-41.67,0H262.51V266h31.25v5.21Zm-41.67,0H220.84V266h31.25v5.21Z"/><path class="cls-3" d="M335.43,299.9H257.3v-5.21h78.13v5.21Zm-88.54,0h-26v-5.21h26v5.21Z"/><path class="cls-3" d="M335.43,328.55H319.8v-5.21h15.63v5.21Zm-26,0H220.84v-5.21h88.54v5.21Z"/><path class="cls-3" d="M335.43,357.19H304.18V352h31.25v5.21Zm-41.67,0H262.51V352h31.25v5.21Zm-41.67,0H220.84V352h31.25v5.21Z"/><path class="cls-3" d="M335.43,385.84H325v-5.21h10.42v5.21Zm-20.83,0H272.93v-5.21h41.67v5.21Zm-52.08,0H220.84v-5.21h41.67v5.21Z"/><rect class="cls-3" height="5.21" width="15.63" x="164.85" y="208.75"/><rect class="cls-3" height="5.21" width="15.63" x="164.85" y="237.4"/><rect class="cls-3" height="5.21" width="15.63" x="164.85" y="266.05"/><rect class="cls-3" height="5.21" width="15.63" x="164.85" y="294.69"/><rect class="cls-3" height="5.21" width="15.63" x="164.85" y="323.34"/><rect class="cls-3" height="5.21" width="15.63" x="164.85" y="351.98"/><rect class="cls-3" height="5.21" width="15.63" x="164.85" y="380.63"/><path class="cls-3" d="M171.36,93.76l43.24-25.63V82.4L191.35,96.67l23.26,13.67v15.08l-43.24-25.13V93.76Z"/><path class="cls-3" d="M284.58,68.13l-41.79,57.29H227.62l41.69-57.29h15.27Z"/><path class="cls-3" d="M340.64,100.29L297.4,125.42V110.34l23.26-13.67L297.4,82.4V68.13l43.24,25.63v6.53Z"/><circle class="cls-4" cx="48.97" cy="207.45" r="7.81"/><circle class="cls-4" cx="77.61" cy="207.45" r="7.81"/><circle class="cls-4" cx="106.26" cy="207.45" r="7.81"/><circle class="cls-4" cx="403.14" cy="207.45" r="7.81"/><circle class="cls-4" cx="431.78" cy="207.45" r="7.81"/><circle class="cls-4" cx="460.43" cy="207.45" r="7.81"/></g></svg>