<svg width="232" height="181" viewBox="0 0 232 181" fill="none" xmlns="http://www.w3.org/2000/svg">
<path d="M231.479 172.852H0.520626V175.539H231.479V172.852Z" fill="#4D4D4D"/>
<path d="M231.479 175.533H0.520626V180.906H231.479V175.533Z" fill="#4AC6C6"/>
<path d="M200.593 54.8307V163.262H31.4066V54.8307C31.4066 52.0515 33.4691 50.4686 36.2431 50.4686H195.922C198.686 50.4531 200.593 52.0515 200.593 54.8307Z" fill="white"/>
<path d="M201.939 164.602H30.0608V54.8308C30.0608 51.4173 32.5409 49.1228 36.2483 49.1228H195.922C199.531 49.1228 201.939 51.4173 201.939 54.8308V164.602ZM32.7472 161.916H199.253V54.8308C199.253 52.2011 197.19 51.8092 195.922 51.8092H36.238C35.4181 51.8092 32.7472 52.0258 32.7472 54.8308V161.916Z" fill="#4D4D4D"/>
<path d="M189.853 59.8633H42.147V144.457H189.853V59.8633Z" fill="white"/>
<path d="M191.194 145.802H40.8064V58.5226H191.194V145.802ZM43.4877 143.116H188.512V61.209H43.4928V143.116H43.4877Z" fill="#4D4D4D"/>
<path d="M188.512 61.209H43.4928V63.8955H188.512V61.209Z" fill="#4AC6C6"/>
<path d="M199.253 151.175V165.953H32.7472V151.175H103.445C103.98 151.177 104.504 151.338 104.947 151.64C105.389 151.941 105.732 152.369 105.93 152.867L107.27 156.197C107.468 156.695 107.811 157.123 108.254 157.424C108.697 157.726 109.22 157.887 109.756 157.889H122.244C122.78 157.887 123.303 157.726 123.746 157.424C124.189 157.123 124.532 156.695 124.73 156.197L126.07 152.867C126.268 152.369 126.61 151.941 127.053 151.64C127.496 151.338 128.02 151.177 128.555 151.175H199.253Z" fill="#4AC6C6"/>
<path d="M213.799 155.202H131.247C130.71 155.202 130.186 155.362 129.741 155.663C129.296 155.963 128.951 156.39 128.751 156.888L127.416 160.225C127.216 160.723 126.871 161.15 126.427 161.45C125.982 161.751 125.457 161.911 124.92 161.911H107.075C106.538 161.911 106.013 161.751 105.568 161.45C105.123 161.15 104.779 160.723 104.579 160.225L103.243 156.888C103.044 156.39 102.699 155.963 102.254 155.663C101.809 155.362 101.285 155.202 100.748 155.202H18.3664C16.5514 155.202 15.1025 156.311 15.417 158.116C17.0309 167.443 25.0953 174.002 34.7942 174.002H197.366C207.07 174.002 215.129 167.443 216.743 158.116C217.062 156.311 215.614 155.202 213.799 155.202Z" fill="white"/>
<path d="M197.366 175.343H34.7942C24.3373 175.343 15.8244 168.351 14.0919 158.327C13.9869 157.8 14.0009 157.256 14.1329 156.735C14.2649 156.214 14.5116 155.729 14.855 155.316C15.298 154.83 15.8417 154.446 16.4481 154.191C17.0545 153.937 17.7091 153.817 18.3664 153.841H100.753C101.559 153.838 102.347 154.078 103.015 154.53C103.683 154.981 104.199 155.624 104.496 156.373L105.832 159.714C105.931 159.964 106.102 160.179 106.325 160.33C106.548 160.481 106.811 160.561 107.08 160.56H124.925C125.194 160.561 125.457 160.481 125.68 160.33C125.903 160.179 126.075 159.964 126.173 159.714L127.509 156.378C127.806 155.629 128.322 154.986 128.99 154.535C129.658 154.083 130.446 153.843 131.252 153.846H213.804C214.461 153.823 215.116 153.942 215.722 154.197C216.328 154.452 216.872 154.835 217.315 155.321C217.659 155.734 217.905 156.219 218.037 156.74C218.169 157.261 218.183 157.805 218.078 158.332C216.335 168.356 207.822 175.343 197.366 175.343ZM18.3664 156.543C18.1016 156.524 17.8357 156.56 17.5854 156.649C17.3352 156.737 17.106 156.877 16.9123 157.059C16.8235 157.173 16.762 157.307 16.7325 157.449C16.703 157.591 16.7063 157.738 16.7422 157.878C18.2478 166.577 25.6728 172.651 34.7891 172.651H197.366C206.492 172.651 213.917 166.577 215.412 157.878C215.448 157.738 215.452 157.591 215.422 157.449C215.393 157.307 215.331 157.173 215.242 157.059C215.049 156.877 214.82 156.737 214.569 156.648C214.319 156.559 214.053 156.524 213.788 156.543H131.247C130.978 156.542 130.715 156.622 130.492 156.773C130.27 156.924 130.098 157.138 129.999 157.389L128.664 160.725C128.366 161.474 127.85 162.116 127.182 162.568C126.515 163.019 125.726 163.259 124.92 163.256H107.075C106.268 163.259 105.48 163.019 104.812 162.568C104.145 162.116 103.628 161.474 103.331 160.725L101.996 157.383C101.897 157.133 101.725 156.919 101.502 156.768C101.28 156.617 101.017 156.537 100.748 156.538H18.3664V156.543Z" fill="#4D4D4D"/>
<path d="M188.512 140.43H43.4928V143.116H188.512V140.43Z" fill="#4AC6C6"/>
<path d="M168.372 137.748H63.6331V143.121H168.372V137.748Z" fill="#4AC6C6"/>
<path d="M50.2062 51.8092L57.2033 143.116H174.797L181.794 51.8092H50.2062Z" fill="#4AC6C6"/>
<path d="M62.3389 2.12872H169.661C170.208 2.12872 170.733 2.34602 171.12 2.73281C171.506 3.11961 171.724 3.64421 171.724 4.19122V144.441H60.2764V4.19122C60.2764 3.64421 60.4937 3.11961 60.8805 2.73281C61.2673 2.34602 61.7919 2.12872 62.3389 2.12872V2.12872Z" fill="white"/>
<path d="M173.069 145.802H58.9306V7.4964C58.9306 5.71862 59.6368 4.01365 60.8939 2.75657C62.151 1.49949 63.856 0.793274 65.6337 0.793274H166.356C168.134 0.793274 169.839 1.49949 171.096 2.75657C172.353 4.01365 173.059 5.71862 173.059 7.4964V145.802H173.069ZM61.617 143.116H170.383V7.50671C170.382 6.4391 169.957 5.41559 169.202 4.66067C168.447 3.90575 167.424 3.48104 166.356 3.47968H65.6441C64.5764 3.48104 63.5529 3.90575 62.798 4.66067C62.0431 5.41559 61.6184 6.4391 61.617 7.50671V143.116Z" fill="#4D4D4D"/>
<path d="M86 57H83V135H86V57Z" fill="#4D4D4D"/>
<path d="M156.956 59.8633H140.843V57.1562H156.956V59.8427V59.8633ZM135.47 59.8633H119.357V57.1562H135.47V59.8427V59.8633ZM113.984 59.8633H97.8706V57.1562H113.984V59.8427V59.8633Z" fill="#4AC6C6"/>
<path d="M156.956 74.6359H116.67V71.9495H156.956V74.6359ZM111.303 74.6359H97.8964V71.9495H111.303V74.6359Z" fill="#4AC6C6"/>
<path d="M156.956 89.4086H148.897V86.7222H156.956V89.4086ZM143.55 89.4086H97.8706V86.7222H143.524V89.4086H143.55Z" fill="#4AC6C6"/>
<path d="M156.956 104.176H140.843V101.5H156.956V104.186V104.176ZM135.47 104.176H119.357V101.5H135.47V104.186V104.176ZM113.984 104.176H97.8706V101.5H113.984V104.186V104.176Z" fill="#4AC6C6"/>
<path d="M156.956 118.949H151.578V116.262H156.951V118.949H156.956ZM146.216 118.949H124.73V116.262H146.216V118.949ZM119.362 118.949H97.8706V116.262H119.357V118.949H119.362Z" fill="#4AC6C6"/>
<path d="M77.06 57.182H69.0008V59.8684H77.06V57.182Z" fill="#4AC6C6"/>
<path d="M77.06 71.9495H69.0008V74.6359H77.06V71.9495Z" fill="#4AC6C6"/>
<path d="M77.06 86.7222H69.0008V89.4086H77.06V86.7222Z" fill="#4AC6C6"/>
<path d="M77.06 101.49H69.0008V104.176H77.06V101.49Z" fill="#4AC6C6"/>
<path d="M77.06 116.262H69.0008V118.949H77.06V116.262Z" fill="#4AC6C6"/>
<path d="M72.3575 29.2155L94.6531 16V23.358L82.6648 30.7159L94.6583 37.7645V45.5402L72.3627 32.5825V29.2155H72.3575Z" fill="#4AC6C6"/>
<path d="M130.737 16L109.189 45.5402H101.367L122.863 16H130.737Z" fill="#4AC6C6"/>
<path d="M159.643 32.5825L137.347 45.5402V37.7645L149.34 30.7159L137.347 23.358V16L159.643 29.2155V32.5825V32.5825Z" fill="#4AC6C6"/>
</svg>
