<svg width="100" height="100" viewBox="0 0 100 100" fill="none" xmlns="http://www.w3.org/2000/svg">
<path d="M0 24C0 10.7452 10.7452 0 24 0H76C89.2548 0 100 10.7452 100 24V76C100 89.2548 89.2548 100 76 100H24C10.7452 100 0 89.2548 0 76V24Z" fill="#F1F397"/>
<path d="M50.5279 63.2987C47.1099 64.3403 44.2845 63.8439 41.4118 61.6911C40.1956 60.7759 38.1111 58.2621 37.9933 51.7656C37.9682 50.8662 38.5243 50.0251 39.3671 49.7015C39.9844 49.4436 40.6333 49.2275 41.2864 49.0344C44.6398 48.0287 50.9726 46.9435 55.7021 51.153C56.214 51.6047 56.522 52.2372 56.5817 52.9398C56.7592 55.1667 56.7861 60.5383 53.0934 62.2733C52.176 62.706 51.3375 63.0526 50.5279 63.2987ZM41.6514 50.2273C41.0212 50.4161 40.4182 50.6237 39.8239 50.8772C39.4693 51.0146 39.2264 51.3692 39.2261 51.7499C39.2774 53.8101 39.639 58.8099 42.1489 60.6735C44.6631 62.5601 47.1183 62.9827 50.1357 62.0872C50.8994 61.8496 51.6732 61.5389 52.549 61.1377C53.554 60.6649 55.8216 58.9338 55.3158 53.033C55.2932 52.6566 55.1098 52.3101 54.8517 52.0727C50.6069 48.2963 44.7564 49.2916 41.6514 50.2273Z" fill="#95973B"/>
<path d="M70.8604 63.8861C67.6678 64.8618 64.7046 64.3912 62.7615 62.636C59.763 59.9357 59.837 55.6159 60.1648 53.2948C60.3106 52.2922 60.8854 51.4238 61.7628 50.9034C63.1527 50.0734 64.508 49.4401 65.8144 49.0539C72.9216 46.8964 75.8891 52.3622 75.9206 52.4039C75.9607 52.4916 76.0008 52.5793 75.995 52.6755C76.0231 53.3364 76.1988 59.2511 75.3046 61.0831C74.7828 62.1082 72.9534 63.258 70.8604 63.8861ZM66.1376 50.2783C64.9462 50.6431 63.6741 51.2133 62.3718 52.0032C61.8362 52.3171 61.4626 52.8626 61.3903 53.4946C61.1115 55.5687 61.0206 59.4158 63.5932 61.7435C65.8805 63.8151 69.1705 63.1067 70.4768 62.7205C72.5698 62.0925 73.8752 61.0641 74.1153 60.5673C74.7321 59.2866 74.7446 54.7642 74.686 52.9195C74.2604 52.1662 71.7592 48.5643 66.1376 50.2783Z" fill="#95973B"/>
<path d="M61.1264 53.3535C60.924 53.4151 60.7044 53.3846 60.5323 53.2264C58.6465 51.6509 56.4521 53.3922 56.3688 53.4553C56.1002 53.6719 55.7113 53.6254 55.4719 53.3608C55.2554 53.0918 55.3017 52.7026 55.566 52.463C56.6172 51.6009 59.18 50.4333 61.3426 52.2189C61.6194 52.429 61.6463 52.8284 61.4366 53.1054C61.3432 53.2418 61.2369 53.3091 61.1264 53.3535Z" fill="#95973B"/>
<path d="M38.4605 51.627C38.2493 51.6384 38.0433 51.5564 37.9141 51.3616C36.4594 49.3811 33.9124 50.5475 33.8164 50.5889C33.5039 50.735 33.1374 50.5969 32.9681 50.2828C32.8222 49.9699 32.9601 49.603 33.274 49.4335C34.5008 48.8476 37.2684 48.3263 38.9416 50.5769C39.1602 50.8471 39.0909 51.2414 38.821 51.4602C38.6977 51.5703 38.5785 51.6103 38.4605 51.627Z" fill="#95973B"/>
<path d="M72.6814 29.684C68.3599 24.3535 63.1113 21.6207 62.7159 21.4203C57.6292 18.4254 51.6398 19.2888 47.5339 20.5391C43.9662 21.6258 41.3522 23.083 40.763 23.4248C40.763 23.4248 17.558 25.8313 23.4096 54.8512C23.5914 54.9228 23.795 54.8848 23.9592 54.7488C24.2507 54.5047 24.5574 54.3421 24.8755 54.2406C26.2331 53.84 27.5322 54.8208 27.536 54.8412C28.8542 55.9239 30.1945 57.8037 31.4884 60.4513C31.7182 60.8934 32.223 61.1156 32.704 60.9838C33.0831 60.871 33.3429 60.5695 33.417 60.1762C33.4132 60.1558 33.4298 60.1316 33.426 60.1112L33.88 51.3603C33.9175 50.6575 34.1369 50.0262 34.538 49.4664C36.3324 47.0023 39.2695 39.7073 40.6476 36.14C40.9795 37.8072 41.5843 40.035 42.6389 41.3987C42.8625 41.6944 43.2427 41.8133 43.5812 41.7081C43.8586 41.6142 44.0928 41.4019 44.1656 41.1142C44.1783 41.0696 44.1911 41.0251 44.1835 40.9843C44.3153 38.6403 44.9814 36.1123 46.2075 33.3113C46.5931 34.5889 47.5087 36.3371 49.4364 38.6557C49.6041 38.8775 49.8915 38.9504 50.1523 38.8807C50.4908 38.7754 50.6819 38.4446 50.6173 38.0982C50.2309 36.2514 51.6881 32.5428 52.6031 30.5589C54.1825 32.4785 58.6949 37.8155 60.9588 39.5654C61.2079 39.772 61.5323 39.817 61.8338 39.7397C62.3517 39.5799 62.6307 39.0429 62.4912 38.5207L60.7739 32.8102C63.2444 33.9733 69.1185 37.0112 71.2423 40.4952C73.1473 43.9355 74.4384 48.3759 75.1852 54.0775C75.2104 54.3258 75.4151 54.5196 75.6745 54.5556C75.7597 54.5608 75.8246 54.5698 75.9022 54.5343C76.0613 54.4835 75.9602 54.6959 76.0353 54.5343C80.4844 43.3729 76.7755 34.6984 72.6814 29.684Z" fill="#95973B"/>
</svg>
