<svg width="250" height="250" viewBox="0 0 250 250" fill="none" xmlns="http://www.w3.org/2000/svg">
<path d="M0 60C0 26.8629 26.8629 0 60 0H190C223.137 0 250 26.8629 250 60V190C250 223.137 223.137 250 190 250H60C26.8629 250 0 223.137 0 190V60Z" fill="#AFD1F7"/>
<path d="M200 158V106.657C200 106.219 199.99 105.792 199.937 105.357C199.572 102.37 197.2 89.6511 182.836 81.814C178.858 79.6434 173.581 75.1744 171.363 71.222C166.356 62.2971 158.386 58 148.152 58H135.765C128.415 58 121.657 62.0319 118.167 68.5C114.676 74.9681 107.918 79 100.568 79H75C61.1929 79 50 90.1929 50 104V158C50 171.807 61.1929 183 75 183H175C188.807 183 200 171.807 200 158Z" fill="#3284DC"/>
<circle cx="137" cy="130" r="40" fill="#CCE4FF"/>
<circle cx="137" cy="130" r="30" fill="#5FA4EE"/>
</svg>
