<svg width="100" height="100" viewBox="0 0 100 100" fill="none" xmlns="http://www.w3.org/2000/svg">
<rect width="100" height="100" fill="black" fill-opacity="0"/>
<path d="M0 24C0 10.7452 10.7452 0 24 0H76C89.2548 0 100 10.7452 100 24V76C100 89.2548 89.2548 100 76 100H24C10.7452 100 0 89.2548 0 76V24Z" fill="#FFBAB1"/>
<path d="M15.2 34C15.2 31.7909 16.9908 30 19.2 30H80.3999C82.6091 30 84.3999 31.7909 84.3999 34V66C84.3999 68.2091 82.6091 70 80.3999 70H19.1999C16.9908 70 15.2 68.2091 15.2 66V34Z" fill="#FE8170"/>
<path d="M23.2001 40.2C23.2001 38.5432 24.5432 37.2 26.2001 37.2C27.8569 37.2 29.2001 38.5432 29.2001 40.2C29.2001 41.8569 27.8569 43.2 26.2001 43.2C24.5432 43.2 23.2001 41.8569 23.2001 40.2Z" fill="#FFCCCC"/>
<path d="M30.8001 40.2C30.8001 38.5432 32.1432 37.2 33.8001 37.2C35.4569 37.2 36.8001 38.5432 36.8001 40.2C36.8001 41.8569 35.4569 43.2 33.8001 43.2C32.1432 43.2 30.8001 41.8569 30.8001 40.2Z" fill="#FFCCCC"/>
<path d="M38.8001 40.2C38.8001 38.5432 40.1432 37.2 41.8001 37.2C43.4569 37.2 44.8001 38.5432 44.8001 40.2C44.8001 41.8569 43.4569 43.2 41.8001 43.2C40.1432 43.2 38.8001 41.8569 38.8001 40.2Z" fill="#FFCCCC"/>
<path d="M46.8001 40.2C46.8001 38.5432 48.1432 37.2 49.8001 37.2C51.4569 37.2 52.8001 38.5432 52.8001 40.2C52.8001 41.8569 51.4569 43.2 49.8001 43.2C48.1432 43.2 46.8001 41.8569 46.8001 40.2Z" fill="#FFCCCC"/>
<path d="M54.8001 40.2C54.8001 38.5432 56.1432 37.2 57.8001 37.2C59.4569 37.2 60.8001 38.5432 60.8001 40.2C60.8001 41.8569 59.4569 43.2 57.8001 43.2C56.1432 43.2 54.8001 41.8569 54.8001 40.2Z" fill="#FFCCCC"/>
<path d="M62.8001 40.2C62.8001 38.5432 64.1432 37.2 65.8001 37.2C67.4569 37.2 68.8001 38.5432 68.8001 40.2C68.8001 41.8569 67.4569 43.2 65.8001 43.2C64.1432 43.2 62.8001 41.8569 62.8001 40.2Z" fill="#FFCCCC"/>
<path d="M70.8001 40.2C70.8001 38.5432 72.1432 37.2 73.8001 37.2C75.4569 37.2 76.8001 38.5432 76.8001 40.2C76.8001 41.8569 75.4569 43.2 73.8001 43.2C72.1432 43.2 70.8001 41.8569 70.8001 40.2Z" fill="#FFCCCC"/>
<path d="M26.8001 50.2C26.8001 48.5432 28.1432 47.2 29.8001 47.2C31.4569 47.2 32.8001 48.5432 32.8001 50.2C32.8001 51.8569 31.4569 53.2 29.8001 53.2C28.1432 53.2 26.8001 51.8569 26.8001 50.2Z" fill="#FFCCCC"/>
<path d="M34.4001 50.2C34.4001 48.5432 35.7432 47.2 37.4001 47.2C39.0569 47.2 40.4001 48.5432 40.4001 50.2C40.4001 51.8569 39.0569 53.2 37.4001 53.2C35.7432 53.2 34.4001 51.8569 34.4001 50.2Z" fill="#FFCCCC"/>
<path d="M42.4001 50.2C42.4001 48.5432 43.7432 47.2 45.4001 47.2C47.0569 47.2 48.4001 48.5432 48.4001 50.2C48.4001 51.8569 47.0569 53.2 45.4001 53.2C43.7432 53.2 42.4001 51.8569 42.4001 50.2Z" fill="#FFCCCC"/>
<path d="M50.4001 50.2C50.4001 48.5432 51.7432 47.2 53.4001 47.2C55.0569 47.2 56.4001 48.5432 56.4001 50.2C56.4001 51.8569 55.0569 53.2 53.4001 53.2C51.7432 53.2 50.4001 51.8569 50.4001 50.2Z" fill="#FFCCCC"/>
<path d="M58.4001 50.2C58.4001 48.5432 59.7432 47.2 61.4001 47.2C63.0569 47.2 64.4001 48.5432 64.4001 50.2C64.4001 51.8569 63.0569 53.2 61.4001 53.2C59.7432 53.2 58.4001 51.8569 58.4001 50.2Z" fill="#FFCCCC"/>
<path d="M66.4001 50.2C66.4001 48.5432 67.7432 47.2 69.4001 47.2C71.0569 47.2 72.4001 48.5432 72.4001 50.2C72.4001 51.8569 71.0569 53.2 69.4001 53.2C67.7432 53.2 66.4001 51.8569 66.4001 50.2Z" fill="#FFCCCC"/>
<path d="M31.2001 59.8C31.2001 58.1432 32.5432 56.8 34.2001 56.8H65.4001C67.0569 56.8 68.4001 58.1432 68.4001 59.8C68.4001 61.4569 67.0569 62.8 65.4001 62.8H34.2001C32.5432 62.8 31.2001 61.4569 31.2001 59.8Z" fill="#FFCCCC"/>
</svg>
