<svg xmlns="http://www.w3.org/2000/svg" viewBox="0 0 44640 1024" width="44640" height="1024"><path d="M382.25 794l84.438-146.25 84.437-146.25 84.438-146.25C663.708 306.5 691.854 257.75 720 209c37.528 65 75.056 130 112.583 195l112.584 195c37.527 65 75.055 130 112.583 195h-675.5" fill="#ffbab1" stroke="#fe8170" stroke-width="10"/><path d="M1823.61 794.28c26.221-49.159 52.971-98.91 80.631-148.874l82.979-143.725c27.66-49.678 55.994-99.199 84.76-148.32 28.907-49.276 58.363-98.042 88.02-145.95 38.877 63.878 77.553 128.613 115.68 193.858 37.986 65.09 75.54 130.581 112.42 196.229 36.879 65.845 72.926 131.495 108.473 196.618-222.497 1.139-445.412 1.835-668.49 1.835-1.712 0-3.276-.63-4.473-1.671" fill="#febbb1" stroke="#fb8270" stroke-width="10"/><path d="M3268.95 795.381c18.66-50.765 39.929-104.451 65.679-159.184l77.252-133.803c25.75-53.327 54.824-105.876 86.026-156.453 31.899-51.341 66.502-100.17 102.093-144.771 44.175 59.468 87.361 123.164 127.843 189.372 39.786 65.444 77.443 132.86 111.777 201.054 34.334 69.165 64.564 137.37 92.329 202.974-212.011 5.613-426.081 9.047-640.955 9.047-8.434 0-16.142-3.106-22.044-8.236" fill="#f9bfb2" stroke="#ef8770" stroke-width="10"/><path d="M4720.877 797.839c1.775-54.352 10.802-116.823 32.289-182.206l64.461-111.649c21.487-61.473 52.213-120.784 88.854-174.612C4945.06 273.42 4991.157 224.45 5040 187.234c56.006 49.622 109.265 110.997 155.005 179.354 43.805 66.234 81.693 137.951 110.342 211.829 28.649 76.578 45.888 150.489 56.276 217.169-188.595 15.601-382.914 25.148-579.466 25.148-23.446 0-44.873-8.633-61.28-22.895" fill="#edc7b4" stroke="#d39371" stroke-width="10"/><path d="M6178.25 801.419c-22.821-59.576-31.625-134.845-16.349-215.741l45.828-79.377c15.276-73.339 48.41-142.502 92.974-201.065 48.31-62.67 111.149-111.844 179.297-138.303 73.24 35.278 141.171 93.272 194.572 164.762 49.659 67.383 87.883 145.365 108.251 227.524 20.368 87.377 18.683 169.599 3.759 237.846-154.486 30.153-320.033 48.604-489.895 48.604-45.315 0-86.727-16.685-118.437-44.25" fill="#dcd4b6" stroke="#aba372" stroke-width="10"/><path d="M7633.13 804.486c-43.888-64.051-67.964-150.281-58.007-244.464l29.87-51.736c9.956-83.503 45.151-161.103 96.502-223.722 56.644-68.423 133.823-117.773 218.505-135.019 88.001 22.994 168.499 78.093 228.46 152.264 54.674 68.368 93.185 151.717 106.461 240.968 13.275 96.626-4.617 185.966-41.221 255.555-125.272 42.615-266.177 68.694-413.18 68.694-64.045 0-122.574-23.582-167.39-62.54" fill="#cedfb9" stroke="#89b173" stroke-width="10"/><path d="M9083.311 806.584c-58.301-67.113-92.828-160.842-86.511-264.116l18.951-32.825c6.317-90.456 42.923-173.829 98.917-239.224 62.347-72.36 149.337-121.829 245.332-132.771 98.101 14.589 187.197 67.706 251.647 143.712 58.105 69.043 96.813 156.062 105.236 250.166 8.423 102.955-20.56 197.166-71.998 267.673-105.283 51.142-229.326 82.439-360.689 82.439-76.861 0-147.101-28.3-200.885-75.054" fill="#c4e6ba" stroke="#72ba73" stroke-width="10"/><path d="M10530.144 807.993c-67.975-69.168-109.515-167.931-105.641-277.307l11.623-20.131c3.874-95.124 41.427-182.371 100.537-249.629 66.174-75.002 159.749-124.552 263.337-131.262 104.879 8.947 199.746 60.734 267.209 137.972 60.408 69.495 99.248 158.979 104.414 256.339 5.165 107.202-31.26 204.683-92.653 275.805-91.868 56.866-204.595 91.666-325.461 91.666-85.461 0-163.562-31.468-223.365-83.453" fill="#bdebbb" stroke="#62c173" stroke-width="10"/><path d="M11974.744 808.941c-74.488-70.552-120.749-172.703-118.519-286.186l6.69-11.587c2.229-98.265 40.419-188.121 101.627-256.632 68.751-76.781 166.759-126.385 275.458-130.247 109.442 5.149 208.194 56.041 277.685 134.109 61.958 69.799 100.887 160.941 103.86 260.495 2.973 110.06-38.463 209.741-106.558 281.279-82.836 60.719-187.946 97.876-301.745 97.876-91.252 0-174.644-33.599-238.498-89.107" fill="#b9eebc" stroke="#57c574" stroke-width="10"/><path d="M13417.782 809.567c-78.789-71.465-128.169-175.855-127.025-292.051l3.431-5.943c1.144-100.341 39.754-191.919 102.348-261.259 70.453-77.955 171.389-127.595 283.464-129.576 112.457 2.641 213.774 52.942 284.604 131.557 62.982 70 101.97 162.239 103.495 263.24 1.525 111.95-43.22 213.084-115.742 284.896-76.871 63.263-176.949 101.978-286.081 101.978-95.076 0-181.963-35.008-248.494-92.842" fill="#b6f1bd" stroke="#50c874" stroke-width="10"/><path d="M14859.671 809.956c-81.463-72.033-132.782-177.814-132.313-295.697l1.405-2.434c.468-101.631 39.341-194.28 102.796-264.135 71.51-78.685 174.267-128.348 288.441-129.159 114.33 1.082 217.243 51.015 288.906 129.97 63.619 70.126 102.643 163.045 103.268 264.947.624 113.123-46.179 215.162-121.453 287.143-73.162 64.846-170.112 104.529-276.342 104.529-97.453 0-186.513-35.883-254.708-95.164" fill="#b4f2bd" stroke="#4cca74" stroke-width="10"/><path d="M16300.677 810.163c-82.887-72.335-135.238-178.857-135.129-297.638l.326-.566c.109-102.318 39.121-195.537 103.035-265.666 72.074-79.074 175.799-128.749 291.091-128.937 115.328.251 219.09 49.988 291.197 129.125 63.957 70.192 103.001 163.474 103.146 265.855.146 113.749-47.753 216.269-124.492 288.341-71.188 65.688-166.472 105.886-271.157 105.886-98.72 0-188.936-36.349-258.017-96.4" fill="#b3f3bd" stroke="#4acb74" stroke-width="10"/><path d="M17662.25 794c56.292-97.5 112.583-195 168.875-292.5L18000 209c112.583 195 225.167 390 337.75 585h-675.5" fill="#ffbab1" stroke="#fe8170" stroke-width="10"/><path d="M19100.933 783.803c56.218-94.389 115.21-188.96 175.068-285.204l165.959-287.449c115.177 191.204 226.427 388.089 337.176 581.65-222.205-1.678-445.43-4.203-670.915-2.573-4.207 1.63-6.931-3.745-7.288-6.424" fill="#febab2" stroke="#fa8172" stroke-width="10"/><path d="M20535.761 743.745c55.926-82.167 125.529-165.23 199.396-256.543l154.502-267.606c125.368 176.293 231.38 380.581 334.921 568.489-210.572-8.269-426.169-20.715-652.905-12.681-20.731 8.034-34.155-18.453-35.914-31.659" fill="#f8bcb7" stroke="#ed8179" stroke-width="10"/><path d="M21964.21 654.295c55.277-54.875 148.572-112.242 253.721-192.542l128.922-223.298c148.122 142.998 242.438 363.818 329.883 539.102-184.593-22.988-383.158-57.585-612.686-35.251-57.633 22.334-94.95-51.3-99.84-88.011" fill="#ecbfc2" stroke="#ce828a" stroke-width="10"/><path d="M23387.385 523.993c54.329-15.118 182.138-35.053 332.856-99.311l91.657-158.754c181.27 94.496 258.548 339.397 322.546 496.293-146.749-44.43-320.504-111.295-554.099-68.131-111.387 43.165-183.51-99.147-192.96-170.097" fill="#dac5d1" stroke="#a182a1" stroke-width="10"/><path d="M24812.974 412.392c53.518 18.932 210.888 31.057 400.635-19.461l59.74-103.473c209.66 52.955 272.345 318.482 316.262 459.628-114.337-62.794-266.842-157.296-503.921-96.291-157.426 61.006-259.36-140.127-272.716-240.403" fill="#cbc9de" stroke="#7a83b6" stroke-width="10"/><path d="M26243.113 336.031c52.964 42.231 230.56 76.291 447.011 35.175l37.902-65.649c229.086 24.532 281.785 304.171 311.963 434.541-92.161-75.358-230.126-188.771-469.589-115.558-188.926 73.213-311.258-168.167-327.287-288.509" fill="#c1cce7" stroke="#6083c4" stroke-width="10"/><path d="M27676.496 284.782c52.59 57.867 243.761 106.65 478.135 71.843l23.246-40.262c242.123 5.455 288.121 294.566 309.077 417.704-77.277-83.792-205.483-209.897-446.546-128.491-210.069 81.406-346.09-186.986-363.912-320.794" fill="#baceed" stroke="#4e84cd" stroke-width="10"/><path d="M29112.041 250.282c52.34 68.393 252.649 127.087 499.088 96.528l13.379-23.173c250.899-7.387 292.386 288.1 307.134 406.369-67.256-89.469-188.894-224.117-431.034-137.196-224.301 86.922-369.537-199.654-388.567-342.528" fill="#b5cff1" stroke="#4284d3" stroke-width="10"/><path d="M30549.098 227.493c52.175 75.347 258.519 140.587 512.928 112.833l6.862-11.885c256.697-15.869 295.204 283.83 305.851 398.883-60.638-93.219-177.937-233.51-420.788-142.946-233.702 90.564-385.026-208.022-404.853-356.885" fill="#b2d0f4" stroke="#3a84d8" stroke-width="10"/><path d="M31987.269 213.327c52.071 79.669 262.168 148.979 521.532 122.969l2.81-4.868c260.3-21.142 296.955 281.175 305.054 394.229-56.524-95.55-171.126-239.35-414.419-146.521-239.546 92.829-394.654-213.224-414.977-365.809" fill="#b0d1f6" stroke="#3584da" stroke-width="10"/><path d="M33426.295 205.783c52.016 81.97 264.112 153.448 526.113 128.366l.653-1.13c262.219-23.951 297.888 279.761 304.629 391.75-54.333-96.792-167.498-242.459-411.027-148.424-242.658 94.035-399.781-215.995-420.368-370.562" fill="#afd1f7" stroke="#3384dc" stroke-width="10"/><path d="M34866 203.5c52 82.667 264.7 154.8 527.5 130 262.8-24.8 298.17 279.333 304.5 391-53.67-97.167-166.4-243.4-410-149s-401.333-216.833-422-372M36306 203.5c52 82.667 264.7 154.8 527.5 130 262.8-24.8 298.17 279.333 304.5 391-53.67-97.167-166.4-243.4-410-149s-401.333-216.833-422-372M37746 203.5c52 82.667 264.7 154.8 527.5 130 262.8-24.8 298.17 279.333 304.5 391-53.67-97.167-166.4-243.4-410-149s-401.333-216.833-422-372M39186 203.5c52 82.667 264.7 154.8 527.5 130 262.8-24.8 298.17 279.333 304.5 391-53.67-97.167-166.4-243.4-410-149s-401.333-216.833-422-372M40626 203.5c52 82.667 264.7 154.8 527.5 130 262.8-24.8 298.17 279.333 304.5 391-53.67-97.167-166.4-243.4-410-149s-401.333-216.833-422-372M42066 203.5c52 82.667 264.7 154.8 527.5 130 262.8-24.8 298.17 279.333 304.5 391-53.67-97.167-166.4-243.4-410-149s-401.333-216.833-422-372M43506 203.5c52 82.667 264.7 154.8 527.5 130 262.8-24.8 298.17 279.333 304.5 391-53.67-97.167-166.4-243.4-410-149s-401.333-216.833-422-372" fill="#afd1f7" stroke="#3284dc" stroke-width="10"/></svg>