<svg width="100" height="100" viewBox="0 0 100 100" fill="none" xmlns="http://www.w3.org/2000/svg">
<path d="M0 24C0 10.7452 10.7452 0 24 0H76C89.2548 0 100 10.7452 100 24V76C100 89.2548 89.2548 100 76 100H24C10.7452 100 0 89.2548 0 76V24Z" fill="#AFD1F7"/>
<path fill-rule="evenodd" clip-rule="evenodd" d="M24 29.6C21.7909 29.6 20 31.3908 20 33.6V65.6C20 67.8091 21.7909 69.6 24 69.6H64.8L80 80.4V69.6V33.6C80 31.3908 78.2091 29.6 76 29.6H24ZM36 54.4C38.4301 54.4 40.4 52.4301 40.4 50C40.4 47.5699 38.4301 45.6 36 45.6C33.5699 45.6 31.6 47.5699 31.6 50C31.6 52.4301 33.5699 54.4 36 54.4ZM54.4 50C54.4 52.4301 52.3405 54.4 49.8 54.4C47.2595 54.4 45.2 52.4301 45.2 50C45.2 47.57 47.2595 45.6 49.8 45.6C52.3405 45.6 54.4 47.57 54.4 50ZM63.6 54.4C66.03 54.4 68 52.4301 68 50C68 47.57 66.03 45.6 63.6 45.6C61.1699 45.6 59.2 47.57 59.2 50C59.2 52.4301 61.1699 54.4 63.6 54.4Z" fill="#3284DC"/>
</svg>
