<svg width="100" height="100" viewBox="0 0 100 100" fill="none" xmlns="http://www.w3.org/2000/svg">
<path d="M0 24C0 10.7452 10.7452 0 24 0H76C89.2548 0 100 10.7452 100 24V76C100 89.2548 89.2548 100 76 100H24C10.7452 100 0 89.2548 0 76V24Z" fill="#B3F3BD"/>
<path fill-rule="evenodd" clip-rule="evenodd" d="M32.2899 20H72.2899V80H32.2899V75.2907L36.4764 72.8617C38.0999 71.9197 38.6581 69.8367 37.723 68.2091C36.788 66.5815 34.7138 66.0258 33.0902 66.9677L32.2899 67.4321V64.5293L36.4764 62.1003C38.0999 61.1583 38.6581 59.0753 37.723 57.4477C36.788 55.8201 34.7138 55.2644 33.0902 56.2063L32.2899 56.6707V54.1293L36.4764 51.7003C38.0999 50.7583 38.6581 48.6753 37.723 47.0477C36.788 45.4202 34.7138 44.8644 33.0902 45.8064L32.2899 46.2707V43.3293L36.4764 40.9003C38.0999 39.9583 38.6581 37.8753 37.723 36.2477C36.788 34.6201 34.7138 34.0644 33.0902 35.0063L32.2899 35.4707V32.4907L36.4764 30.0617C38.0999 29.1197 38.6581 27.0367 37.723 25.4091C36.788 23.7815 34.7138 23.2258 33.0902 24.1677L32.2899 24.6321V20Z" fill="#49CB74"/>
<path d="M28.2997 29.2594C27.6315 29.6471 27.4018 30.5044 27.7866 31.1742C28.1714 31.844 29.025 32.0727 29.6932 31.685L35.4801 28.3275C36.1482 27.9398 36.3779 27.0826 35.9931 26.4128C35.6083 25.743 34.7547 25.5143 34.0865 25.9019L28.2997 29.2594Z" fill="#49CB74"/>
<path d="M28.2997 40.0981C27.6315 40.4857 27.4018 41.343 27.7866 42.0128C28.1714 42.6826 29.025 42.9113 29.6932 42.5237L35.4801 39.1661C36.1482 38.7785 36.3779 37.9212 35.9931 37.2514C35.6083 36.5816 34.7547 36.3529 34.0865 36.7406L28.2997 40.0981Z" fill="#49CB74"/>
<path d="M27.7866 52.8128C27.4018 52.143 27.6315 51.2857 28.2997 50.8981L34.0865 47.5406C34.7547 47.1529 35.6083 47.3816 35.9931 48.0514C36.3779 48.7212 36.1482 49.5785 35.4801 49.9661L29.6932 53.3237C29.025 53.7113 28.1714 53.4826 27.7866 52.8128Z" fill="#49CB74"/>
<path d="M28.2997 61.2981C27.6315 61.6857 27.4018 62.543 27.7866 63.2128C28.1714 63.8826 29.025 64.1113 29.6932 63.7237L35.4801 60.3661C36.1482 59.9785 36.3779 59.1212 35.9931 58.4514C35.6083 57.7816 34.7547 57.5529 34.0865 57.9406L28.2997 61.2981Z" fill="#49CB74"/>
<path d="M27.7866 73.9742C27.4018 73.3044 27.6315 72.4471 28.2997 72.0594L34.0865 68.7019C34.7547 68.3143 35.6083 68.543 35.9931 69.2128C36.3779 69.8826 36.1482 70.7398 35.4801 71.1275L29.6932 74.485C29.025 74.8727 28.1714 74.644 27.7866 73.9742Z" fill="#49CB74"/>
<path fill-rule="evenodd" clip-rule="evenodd" d="M58 24.8C59.1046 24.8 60 25.6955 60 26.8L60 36.8C60 37.9046 59.1046 38.8 58 38.8C56.8954 38.8 56 37.9046 56 36.8L56 26.8C56 25.6955 56.8954 24.8 58 24.8ZM66 24.8C67.1046 24.8 68 25.6955 68 26.8L68 44.8C68 45.9046 67.1046 46.8 66 46.8C64.8954 46.8 64 45.9046 64 44.8L64 26.8C64 25.6955 64.8954 24.8 66 24.8Z" fill="#9AF8B9"/>
</svg>
