<svg width="250" height="190" viewBox="0 0 250 190" fill="none" xmlns="http://www.w3.org/2000/svg">
<path fill-rule="evenodd" clip-rule="evenodd" d="M70 30.1869H10C4.47715 30.1869 0 34.664 0 40.1869V180C0 185.523 4.47715 190 10 190H85C90.5229 190 95 185.523 95 180L85 180C76.7157 180 70 173.284 70 165V30.1869Z" fill="#FE8170"/>
<path fill-rule="evenodd" clip-rule="evenodd" d="M148 15.0934H87C81.4772 15.0934 77 19.5706 77 25.0935V164.907C77 170.429 81.4772 174.907 87 174.907H162C167.492 174.907 171.949 170.48 172 165H163C154.716 165 148 158.284 148 150V15.0934Z" fill="#3284DC"/>
<rect x="155" width="95" height="159.813" rx="10" fill="#49CB74"/>
</svg>
