<svg width="250" height="190" viewBox="0 0 250 190" fill="none" xmlns="http://www.w3.org/2000/svg">
<path fill-rule="evenodd" clip-rule="evenodd" d="M10 0C4.47715 0 0 4.47716 0 10V128.73C0 134.253 4.47715 138.73 10 138.73H50V57.2381C50 50.6107 55.3726 45.2381 62 45.2381H200V10C200 4.47715 195.523 0 190 0H10Z" fill="#FED670"/>
<path d="M56 61.2698C56 55.747 60.4772 51.2698 66 51.2698H240C245.523 51.2698 250 55.747 250 61.2698V180C250 185.523 245.523 190 240 190H66C60.4772 190 56 185.523 56 180V61.2698Z" fill="#6469DA"/>
</svg>
