<svg width="250" height="189" viewBox="0 0 250 189" fill="none" xmlns="http://www.w3.org/2000/svg">
<path fill-rule="evenodd" clip-rule="evenodd" d="M0 10C0 4.47715 4.47715 0 10 0H190C195.523 0 200 4.47715 200 10V45H62C55.3726 45 50 50.3726 50 57V138H10C4.47715 138 0 133.523 0 128V10ZM21 18C21 20.2091 19.2091 22 17 22C14.7909 22 13 20.2091 13 18C13 15.7909 14.7909 14 17 14C19.2091 14 21 15.7909 21 18ZM33 22C35.2091 22 37 20.2091 37 18C37 15.7909 35.2091 14 33 14C30.7909 14 29 15.7909 29 18C29 20.2091 30.7909 22 33 22ZM53 18C53 20.2091 51.2091 22 49 22C46.7909 22 45 20.2091 45 18C45 15.7909 46.7909 14 49 14C51.2091 14 53 15.7909 53 18Z" fill="#FED670"/>
<path fill-rule="evenodd" clip-rule="evenodd" d="M66 51C60.4772 51 56 55.4772 56 61V179C56 184.523 60.4772 189 66 189H240C245.523 189 250 184.523 250 179V61C250 55.4772 245.523 51 240 51H66ZM73 73.5C75.2091 73.5 77 71.7091 77 69.5C77 67.2909 75.2091 65.5 73 65.5C70.7909 65.5 69 67.2909 69 69.5C69 71.7091 70.7909 73.5 73 73.5ZM93 69.5C93 71.7091 91.2091 73.5 89 73.5C86.7909 73.5 85 71.7091 85 69.5C85 67.2909 86.7909 65.5 89 65.5C91.2091 65.5 93 67.2909 93 69.5ZM105 73.5C107.209 73.5 109 71.7091 109 69.5C109 67.2909 107.209 65.5 105 65.5C102.791 65.5 101 67.2909 101 69.5C101 71.7091 102.791 73.5 105 73.5Z" fill="#6469DA"/>
</svg>
