<svg width="250" height="193" viewBox="0 0 250 193" fill="none" xmlns="http://www.w3.org/2000/svg">
<rect y="27.0327" width="85.4233" height="170.847" rx="20.9589" transform="rotate(-15 0 27.0327)" fill="#FE8170"/>
<path fill-rule="evenodd" clip-rule="evenodd" d="M12.3444 23.725C5.55054 25.5455 1.47562 32.5398 3.2818 39.2806L40.9365 179.81C42.7427 186.551 49.7689 190.571 56.5628 188.75L114.387 173.256C121.18 171.436 125.255 164.441 123.449 157.701L85.7944 17.1714C83.9882 10.4306 76.962 6.4108 70.1682 8.2312L12.3444 23.725ZM13.7262 28.882L21.51 26.7964C21.6806 26.7506 21.8585 26.7387 22.0335 26.7613C22.2086 26.7838 22.3772 26.8403 22.53 26.9277C22.6827 27.0151 22.8165 27.1316 22.9237 27.2706C23.0309 27.4095 23.1095 27.5681 23.1548 27.7375L23.3276 28.3821C23.6024 29.4079 24.2768 30.2817 25.2022 30.8112C26.1276 31.3406 27.2283 31.4824 28.2622 31.2054L60.4226 22.5881C61.4565 22.311 62.3388 21.6379 62.8755 20.7166C63.4122 19.7954 63.5593 18.7015 63.2845 17.6757L63.1117 17.031C63.0664 16.8617 63.055 16.6851 63.0784 16.5111C63.1018 16.3372 63.1594 16.1694 63.248 16.0174C63.3366 15.8653 63.4544 15.732 63.5947 15.625C63.735 15.5179 63.895 15.4393 64.0657 15.3936L71.55 13.3882C75.5543 12.3152 79.5322 14.5911 80.5968 18.5641L118.251 159.093C119.316 163.066 117.009 167.026 113.005 168.099L55.1809 183.593C51.1767 184.666 47.1987 182.39 46.1342 178.417L8.47945 37.8879C7.41489 33.9149 9.72196 29.9549 13.7262 28.882V28.882Z" fill="white"/>
<rect x="82.3407" width="85.4362" height="170.872" rx="20.9589" fill="#3284DC"/>
<path fill-rule="evenodd" clip-rule="evenodd" d="M95.1225 0C88.0879 0 82.3407 5.70221 82.3407 12.6818V158.19C82.3407 165.17 88.0879 170.872 95.1225 170.872H154.995C162.03 170.872 167.777 165.17 167.777 158.19V12.6818C167.777 5.70221 162.03 0 154.995 0H95.1225ZM95.1225 5.33969H103.182C103.359 5.33969 103.534 5.37422 103.697 5.44131C103.86 5.5084 104.008 5.60667 104.133 5.73063C104.258 5.8546 104.357 6.0018 104.425 6.16376C104.493 6.32573 104.527 6.49934 104.527 6.67465V7.34213C104.527 8.40427 104.953 9.42298 105.71 10.174C106.467 10.9251 107.493 11.347 108.564 11.347H141.864C142.934 11.347 143.961 10.9251 144.718 10.174C145.475 9.42298 145.9 8.40427 145.9 7.34213V6.67465C145.9 6.49934 145.935 6.32573 146.003 6.16376C146.07 6.0018 146.169 5.8546 146.294 5.73063C146.419 5.60667 146.567 5.5084 146.731 5.44131C146.894 5.37422 147.069 5.33969 147.246 5.33969H154.995C159.141 5.33969 162.395 8.56807 162.395 12.6818V158.19C162.395 162.304 159.141 165.533 154.995 165.533H95.1225C90.9764 165.533 87.7225 162.304 87.7225 158.19V12.6818C87.7225 8.56807 90.9764 5.33969 95.1225 5.33969V5.33969Z" fill="white"/>
<rect x="167.487" y="5.40656" width="85.4233" height="170.847" rx="20.9589" transform="rotate(15 167.487 5.40656)" fill="#49CB74"/>
<path fill-rule="evenodd" clip-rule="evenodd" d="M179.832 8.71423C173.038 6.89382 166.012 10.9136 164.206 17.6544L126.551 158.184C124.745 164.924 128.82 171.919 135.613 173.739L193.437 189.233C200.231 191.054 207.257 187.034 209.064 180.293L246.718 39.7636C248.524 33.0228 244.449 26.0285 237.656 24.2081L179.832 8.71423ZM178.45 13.8712L186.234 15.9568C186.404 16.0026 186.564 16.0812 186.705 16.1882C186.845 16.2953 186.963 16.4286 187.051 16.5806C187.14 16.7327 187.198 16.9005 187.221 17.0744C187.244 17.2483 187.233 17.425 187.188 17.5943L187.015 18.2389C186.74 19.2647 186.887 20.3586 187.424 21.2799C187.961 22.2011 188.843 22.8743 189.877 23.1513L222.037 31.7687C223.071 32.0457 224.172 31.9039 225.097 31.3744C226.023 30.845 226.697 29.9712 226.972 28.9454L227.145 28.3007C227.19 28.1314 227.269 27.9727 227.376 27.8338C227.483 27.6949 227.617 27.5784 227.769 27.491C227.922 27.4036 228.091 27.3471 228.266 27.3245C228.441 27.302 228.619 27.3139 228.79 27.3596L236.274 29.365C240.278 30.438 242.585 34.3979 241.521 38.3709L203.866 178.9C202.801 182.873 198.823 185.149 194.819 184.076L136.995 168.582C132.991 167.509 130.684 163.549 131.749 159.576L169.403 19.0471C170.468 15.0741 174.446 12.7983 178.45 13.8712V13.8712Z" fill="white"/>
</svg>
