<svg width="25" height="25" viewBox="0 0 25 25" fill="none" xmlns="http://www.w3.org/2000/svg">
<rect width="25" height="25" fill="black" fill-opacity="0"/>
<rect width="25" height="25" rx="6" fill="#FFBAB1"/>
<rect x="3.80005" y="7.5" width="17.3" height="10" rx="1" fill="#FE8170"/>
<rect width="13.4" height="6.4" fill="black" fill-opacity="0" transform="translate(5.80005 9.29999)"/>
<rect x="7.80005" y="14.2" width="9.3" height="1.5" rx="0.75" fill="#FFCCCC"/>
<rect width="13.4" height="1.5" fill="black" fill-opacity="0" transform="translate(5.80005 9.29999)"/>
<rect x="5.80005" y="9.29999" width="1.5" height="1.5" rx="0.75" fill="#FFCCCC"/>
<rect x="7.69995" y="9.29999" width="1.5" height="1.5" rx="0.75" fill="#FFCCCC"/>
<rect x="9.69995" y="9.29999" width="1.5" height="1.5" rx="0.75" fill="#FFCCCC"/>
<rect x="11.7" y="9.29999" width="1.5" height="1.5" rx="0.75" fill="#FFCCCC"/>
<rect x="13.7" y="9.29999" width="1.5" height="1.5" rx="0.75" fill="#FFCCCC"/>
<rect x="15.7" y="9.29999" width="1.5" height="1.5" rx="0.75" fill="#FFCCCC"/>
<rect x="17.7" y="9.29999" width="1.5" height="1.5" rx="0.75" fill="#FFCCCC"/>
<rect width="11.4" height="1.5" fill="black" fill-opacity="0" transform="translate(6.69995 11.8)"/>
<rect x="6.69995" y="11.8" width="1.5" height="1.5" rx="0.75" fill="#FFCCCC"/>
<rect x="8.6001" y="11.8" width="1.5" height="1.5" rx="0.75" fill="#FFCCCC"/>
<rect x="10.6001" y="11.8" width="1.5" height="1.5" rx="0.75" fill="#FFCCCC"/>
<rect x="12.6001" y="11.8" width="1.5" height="1.5" rx="0.75" fill="#FFCCCC"/>
<rect x="14.6001" y="11.8" width="1.5" height="1.5" rx="0.75" fill="#FFCCCC"/>
<rect x="16.6001" y="11.8" width="1.5" height="1.5" rx="0.75" fill="#FFCCCC"/>
</svg>
